<?xml version="1.0" encoding="UTF-8" standalone="no"?>
<!-- Created with Inkscape (http://www.inkscape.org/) -->

<svg
   width="297mm"
   height="210mm"
   viewBox="0 0 297 210"
   version="1.1"
   id="svg8"
   inkscape:version="1.3.2 (1:1.3.2+202311252150+091e20ef0f)"
   sodipodi:docname="net_intro.svg"
   xmlns:inkscape="http://www.inkscape.org/namespaces/inkscape"
   xmlns:sodipodi="http://sodipodi.sourceforge.net/DTD/sodipodi-0.dtd"
   xmlns="http://www.w3.org/2000/svg"
   xmlns:svg="http://www.w3.org/2000/svg"
   xmlns:rdf="http://www.w3.org/1999/02/22-rdf-syntax-ns#"
   xmlns:cc="http://creativecommons.org/ns#"
   xmlns:dc="http://purl.org/dc/elements/1.1/">
  <defs
     id="defs2">
    <marker
       inkscape:stockid="TriangleOutS"
       orient="auto"
       refY="0"
       refX="0"
       id="marker12887"
       style="overflow:visible"
       inkscape:isstock="true">
      <path
         id="path12885"
         d="M 5.77,0 -2.88,5 V -5 Z"
         style="fill:#8c0000;fill-opacity:1;fill-rule:evenodd;stroke:#8c0000;stroke-width:1.00000003pt;stroke-opacity:1"
         transform="scale(0.2)"
         inkscape:connector-curvature="0" />
    </marker>
    <marker
       inkscape:stockid="TriangleOutM"
       orient="auto"
       refY="0"
       refX="0"
       id="TriangleOutM"
       style="overflow:visible"
       inkscape:isstock="true">
      <path
         id="path1152"
         d="M 5.77,0 -2.88,5 V -5 Z"
         style="fill:#8c0000;fill-opacity:1;fill-rule:evenodd;stroke:#8c0000;stroke-width:1.00000003pt;stroke-opacity:1"
         transform="scale(0.4)"
         inkscape:connector-curvature="0" />
    </marker>
    <marker
       inkscape:stockid="TriangleOutL"
       orient="auto"
       refY="0"
       refX="0"
       id="TriangleOutL"
       style="overflow:visible"
       inkscape:isstock="true">
      <path
         id="path1149"
         d="M 5.77,0 -2.88,5 V -5 Z"
         style="fill:#8c0000;fill-opacity:1;fill-rule:evenodd;stroke:#8c0000;stroke-width:1.00000003pt;stroke-opacity:1"
         transform="scale(0.8)"
         inkscape:connector-curvature="0" />
    </marker>
    <marker
       inkscape:stockid="Arrow2Mend"
       orient="auto"
       refY="0"
       refX="0"
       id="Arrow2Mend"
       style="overflow:visible"
       inkscape:isstock="true">
      <path
         id="path1034"
         style="fill:#8c0000;fill-opacity:1;fill-rule:evenodd;stroke:#8c0000;stroke-width:0.625;stroke-linejoin:round;stroke-opacity:1"
         d="M 8.7185878,4.0337352 -2.2072895,0.01601326 8.7185884,-4.0017078 c -1.7454984,2.3720609 -1.7354408,5.6174519 -6e-7,8.035443 z"
         transform="scale(-0.6)"
         inkscape:connector-curvature="0" />
    </marker>
    <marker
       inkscape:stockid="Arrow1Mend"
       orient="auto"
       refY="0"
       refX="0"
       id="Arrow1Mend"
       style="overflow:visible"
       inkscape:isstock="true">
      <path
         id="path1016"
         d="M 0,0 5,-5 -12.5,0 5,5 Z"
         style="fill:#8c0000;fill-opacity:1;fill-rule:evenodd;stroke:#8c0000;stroke-width:1.00000003pt;stroke-opacity:1"
         transform="matrix(-0.4,0,0,-0.4,-4,0)"
         inkscape:connector-curvature="0" />
    </marker>
    <marker
       inkscape:isstock="true"
       style="overflow:visible"
       id="marker3062"
       refX="0"
       refY="0"
       orient="auto"
       inkscape:stockid="StopL">
      <path
         transform="scale(0.8)"
         style="fill:none;fill-opacity:0.75;fill-rule:evenodd;stroke:#000000;stroke-width:1.00000003pt;stroke-opacity:1"
         d="M 0,5.65 V -5.65"
         id="path3060"
         inkscape:connector-curvature="0" />
    </marker>
    <marker
       inkscape:stockid="DiamondMstart"
       orient="auto"
       refY="0"
       refX="0"
       id="DiamondMstart"
       style="overflow:visible"
       inkscape:isstock="true">
      <path
         id="path1098"
         d="M 0,-7.0710768 -7.0710894,0 0,7.0710589 7.0710462,0 Z"
         style="fill:#005500;fill-opacity:1;fill-rule:evenodd;stroke:#005500;stroke-width:1.00000003pt;stroke-opacity:1"
         transform="matrix(0.4,0,0,0.4,2.6,0)"
         inkscape:connector-curvature="0" />
    </marker>
    <marker
       inkscape:stockid="Torso"
       orient="auto"
       refY="0"
       refX="0"
       id="Torso"
       style="overflow:visible"
       inkscape:isstock="true">
      <g
         id="g1233"
         transform="scale(0.7)"
         style="fill:#000000;fill-opacity:1;stroke:#000000;stroke-opacity:1">
        <path
           id="path1219"
           d="m -4.7792281,-3.239542 c 2.350374,0.3659393 5.30026732,1.9375477 5.03715532,3.62748546 C -0.00518779,2.0778819 -2.2126741,2.6176539 -4.5630471,2.2517169 -6.9134221,1.8857769 -8.521035,0.75201414 -8.257922,-0.93792336 -7.994809,-2.6278615 -7.1296041,-3.6054813 -4.7792281,-3.239542 Z"
           style="fill:#000000;fill-opacity:1;fill-rule:evenodd;stroke:#000000;stroke-width:1.25;stroke-opacity:1"
           inkscape:connector-curvature="0" />
        <path
           id="path1221"
           d="M 4.4598789,0.08866574 C -2.5564571,-4.378332 5.2248769,-3.9061806 -0.84829578,-8.7197331"
           style="fill:#000000;fill-opacity:1;fill-rule:evenodd;stroke:#000000;stroke-width:1.00000003pt;stroke-opacity:1"
           inkscape:connector-curvature="0" />
        <path
           id="path1223"
           d="M 4.9298719,0.05752074 C -1.3872731,1.7494689 1.8027579,5.4782079 -4.9448731,7.5462725"
           style="fill:#000000;fill-opacity:1;fill-rule:evenodd;stroke:#000000;stroke-width:1.00000003pt;stroke-opacity:1"
           inkscape:connector-curvature="0" />
        <rect
           id="rect1225"
           transform="matrix(0.527536,-0.849533,0.887668,0.460484,0,0)"
           y="-1.7408575"
           x="-10.391706"
           height="2.7608147"
           width="2.6366582"
           style="fill:#000000;fill-opacity:1;fill-rule:evenodd;stroke:#000000;stroke-width:1.00000003pt;stroke-opacity:1" />
        <rect
           id="rect1227"
           transform="matrix(0.671205,-0.741272,0.790802,0.612072,0,0)"
           y="-7.9629307"
           x="4.9587269"
           height="2.8614161"
           width="2.7327356"
           style="fill:#000000;fill-opacity:1;fill-rule:evenodd;stroke:#000000;stroke-width:1.00000003pt;stroke-opacity:1" />
        <path
           id="path1229"
           transform="matrix(0,-1.109517,1.109517,0,25.96648,19.71619)"
           d="m 16.779951,-28.685045 a 0.60731727,0.60731727 0 1 0 -1.214634,0 0.60731727,0.60731727 0 1 0 1.214634,0 z"
           style="fill:#000000;fill-opacity:1;fill-rule:evenodd;stroke:#000000;stroke-width:1.00000003pt;stroke-opacity:1"
           inkscape:connector-curvature="0" />
        <path
           id="path1231"
           transform="matrix(0,-1.109517,1.109517,0,26.8245,16.99126)"
           d="m 16.779951,-28.685045 a 0.60731727,0.60731727 0 1 0 -1.214634,0 0.60731727,0.60731727 0 1 0 1.214634,0 z"
           style="fill:#000000;fill-opacity:1;fill-rule:evenodd;stroke:#000000;stroke-width:1.00000003pt;stroke-opacity:1"
           inkscape:connector-curvature="0" />
      </g>
    </marker>
    <marker
       inkscape:stockid="Scissors"
       orient="auto"
       refY="0"
       refX="0"
       id="Scissors"
       style="overflow:visible"
       inkscape:isstock="true">
      <path
         id="schere"
         d="M 9.0898857,-3.6061018 C 8.1198849,-4.7769976 6.3697607,-4.7358294 5.0623558,-4.2327734 l -8.2124046,3.0779029 c -2.3882933,-1.3067135 -4.7482873,-0.9325372 -4.7482873,-1.5687873 0,-0.4973164 0.4566662,-0.3883222 0.3883068,-1.6831941 -0.065635,-1.2432767 -1.3635771,-2.1630796 -2.5903987,-2.0816435 -1.227271,-0.00735 -2.499439,0.9331613 -2.510341,2.2300611 -0.09143,1.3063864 1.007209,2.5196896 2.306764,2.6052316 1.5223406,0.2266616 4.218258,-0.6955566 5.482945,1.57086006 -0.9422847,1.73825774 -2.6140244,1.74307674 -4.1255107,1.65607034 -1.2548743,-0.072235 -2.7620933,0.2873979 -3.3606483,1.5208605 -0.578367,1.1820862 -0.0112,2.8646022 1.316749,3.226412 1.3401912,0.4918277 3.1806689,-0.129711 3.4993722,-1.6707242 0.2456585,-1.187823 -0.5953659,-1.7459574 -0.2725074,-2.1771537 0.2436135,-0.32536 1.7907806,-0.1368452 4.5471053,-1.3748244 L 5.6763468,4.2330688 C 6.8000164,4.5467672 8.1730685,4.5362646 9.1684433,3.4313614 l -9.22008423,-3.48508362 z m -18.3078016,-1.900504 c 1.294559,0.7227998 1.1888392,2.6835702 -0.1564272,3.0632889 -1.2165179,0.423661 -2.7710269,-0.7589694 -2.3831779,-2.0774648 0.227148,-1.0818519 1.653387,-1.480632 2.5396051,-0.9858241 z m 0.056264,8.0173649 c 1.3508301,0.4988648 1.1214429,2.7844356 -0.2522207,3.091609 -0.9110597,0.3163391 -2.2135497,-0.1387976 -2.3056967,-1.2121394 -0.177609,-1.305055 1.356085,-2.4841482 2.5579174,-1.8794696 z"
         style="fill:#000000;fill-opacity:1;stroke:#000000;stroke-opacity:1"
         inkscape:connector-curvature="0" />
    </marker>
    <marker
       inkscape:stockid="TriangleOutM"
       orient="auto"
       refY="0"
       refX="0"
       id="TriangleOutM-6"
       style="overflow:visible"
       inkscape:isstock="true">
      <path
         inkscape:connector-curvature="0"
         id="path1152-1"
         d="M 5.77,0 -2.88,5 V -5 Z"
         style="fill:#8c0000;fill-opacity:1;fill-rule:evenodd;stroke:#8c0000;stroke-width:1.00000003pt;stroke-opacity:1"
         transform="scale(0.4)" />
    </marker>
    <marker
       inkscape:stockid="TriangleOutM"
       orient="auto"
       refY="0"
       refX="0"
       id="TriangleOutM-7"
       style="overflow:visible"
       inkscape:isstock="true">
      <path
         inkscape:connector-curvature="0"
         id="path1152-9"
         d="M 5.77,0 -2.88,5 V -5 Z"
         style="fill:#8c0000;fill-opacity:1;fill-rule:evenodd;stroke:#8c0000;stroke-width:1.00000003pt;stroke-opacity:1"
         transform="scale(0.4)" />
    </marker>
    <marker
       inkscape:stockid="TriangleOutM"
       orient="auto"
       refY="0"
       refX="0"
       id="TriangleOutM-0"
       style="overflow:visible"
       inkscape:isstock="true">
      <path
         inkscape:connector-curvature="0"
         id="path1152-2"
         d="M 5.77,0 -2.88,5 V -5 Z"
         style="fill:#8c0000;fill-opacity:1;fill-rule:evenodd;stroke:#8c0000;stroke-width:1.00000003pt;stroke-opacity:1"
         transform="scale(0.4)" />
    </marker>
    <marker
       inkscape:stockid="TriangleOutM"
       orient="auto"
       refY="0"
       refX="0"
       id="TriangleOutM-75"
       style="overflow:visible"
       inkscape:isstock="true">
      <path
         inkscape:connector-curvature="0"
         id="path1152-92"
         d="M 5.77,0 -2.88,5 V -5 Z"
         style="fill:#8c0000;fill-opacity:1;fill-rule:evenodd;stroke:#8c0000;stroke-width:1.00000003pt;stroke-opacity:1"
         transform="scale(0.4)" />
    </marker>
    <marker
       inkscape:stockid="TriangleOutS"
       orient="auto"
       refY="0"
       refX="0"
       id="marker12887-6"
       style="overflow:visible"
       inkscape:isstock="true">
      <path
         inkscape:connector-curvature="0"
         id="path12885-3"
         d="M 5.77,0 -2.88,5 V -5 Z"
         style="fill:#8c0000;fill-opacity:1;fill-rule:evenodd;stroke:#8c0000;stroke-width:1.00000003pt;stroke-opacity:1"
         transform="scale(0.2)" />
    </marker>
    <marker
       inkscape:stockid="TriangleOutS"
       orient="auto"
       refY="0"
       refX="0"
       id="marker12887-7"
       style="overflow:visible"
       inkscape:isstock="true">
      <path
         inkscape:connector-curvature="0"
         id="path12885-4"
         d="M 5.77,0 -2.88,5 V -5 Z"
         style="fill:#8c0000;fill-opacity:1;fill-rule:evenodd;stroke:#8c0000;stroke-width:1.00000003pt;stroke-opacity:1"
         transform="scale(0.2)" />
    </marker>
    <marker
       inkscape:stockid="TriangleOutS"
       orient="auto"
       refY="0"
       refX="0"
       id="marker12887-0"
       style="overflow:visible"
       inkscape:isstock="true">
      <path
         inkscape:connector-curvature="0"
         id="path12885-6"
         d="M 5.77,0 -2.88,5 V -5 Z"
         style="fill:#8c0000;fill-opacity:1;fill-rule:evenodd;stroke:#8c0000;stroke-width:1.00000003pt;stroke-opacity:1"
         transform="scale(0.2)" />
    </marker>
    <marker
       inkscape:stockid="DiamondMstart"
       orient="auto"
       refY="0"
       refX="0"
       id="DiamondMstart-6"
       style="overflow:visible"
       inkscape:isstock="true">
      <path
         id="path1098-1"
         d="M 0,-7.0710768 -7.0710894,0 0,7.0710589 7.0710462,0 Z"
         style="fill:#005500;fill-opacity:1;fill-rule:evenodd;stroke:#005500;stroke-width:1.00000003pt;stroke-opacity:1"
         transform="matrix(0.4,0,0,0.4,2.6,0)"
         inkscape:connector-curvature="0" />
    </marker>
    <marker
       inkscape:isstock="true"
       style="overflow:visible"
       id="marker3062-0"
       refX="0"
       refY="0"
       orient="auto"
       inkscape:stockid="StopL">
      <path
         transform="scale(0.8)"
         style="fill:none;fill-opacity:0.75;fill-rule:evenodd;stroke:#000000;stroke-width:1.00000003pt;stroke-opacity:1"
         d="M 0,5.65 V -5.65"
         id="path3060-9"
         inkscape:connector-curvature="0" />
    </marker>
    <marker
       inkscape:isstock="true"
       style="overflow:visible"
       id="marker3317"
       refX="0"
       refY="0"
       orient="auto"
       inkscape:stockid="StopL">
      <path
         transform="scale(0.8)"
         style="fill:none;fill-opacity:0.75;fill-rule:evenodd;stroke:#000000;stroke-width:1.00000003pt;stroke-opacity:1"
         d="M 0,5.65 V -5.65"
         id="path3315"
         inkscape:connector-curvature="0" />
    </marker>
  </defs>
  <sodipodi:namedview
     id="base"
     pagecolor="#ffffff"
     bordercolor="#666666"
     borderopacity="1.0"
     inkscape:pageopacity="0.0"
     inkscape:pageshadow="2"
     inkscape:zoom="0.98315058"
     inkscape:cx="385.49537"
     inkscape:cy="327.5185"
     inkscape:document-units="mm"
     inkscape:current-layer="layer1"
     showgrid="true"
     inkscape:window-width="1920"
     inkscape:window-height="1016"
     inkscape:window-x="0"
     inkscape:window-y="27"
     inkscape:window-maximized="1"
     inkscape:showpageshadow="2"
     inkscape:pagecheckerboard="0"
     inkscape:deskcolor="#d1d1d1">
    <inkscape:grid
       type="xygrid"
       id="grid815"
       originx="0"
       originy="0"
       spacingy="1"
       spacingx="1"
       units="mm"
       visible="true" />
  </sodipodi:namedview>
  <metadata
     id="metadata5">
    <rdf:RDF>
      <cc:Work
         rdf:about="">
        <dc:format>image/svg+xml</dc:format>
        <dc:type
           rdf:resource="http://purl.org/dc/dcmitype/StillImage" />
        <dc:title />
      </cc:Work>
    </rdf:RDF>
  </metadata>
  <g
     inkscape:label="Layer 1"
     inkscape:groupmode="layer"
     id="layer1"
     transform="translate(0,-87)">
    <text
       xml:space="preserve"
       style="font-style:normal;font-weight:normal;font-size:5.64444px;line-height:1.25;font-family:sans-serif;letter-spacing:0px;word-spacing:0px;fill:#000000;fill-opacity:1;stroke:none;stroke-width:0.880312"
       x="-163.68558"
       y="80.315842"
       id="text3041-1"
       transform="matrix(-0.01505785,-1.0408194,0.96054451,-0.01637981,0,0)"><tspan
         sodipodi:role="line"
         id="tspan3039-5"
         x="-163.68558"
         y="80.315842"
         style="font-size:5.64444px;fill:#000000;fill-opacity:1;stroke-width:0.880312">Input data</tspan></text>
    <path
       style="fill:#000000;fill-opacity:0;stroke:#2200ea;stroke-width:0.4;stroke-dasharray:none;stroke-opacity:1"
       d="m 116.16762,137.98391 -26.352061,-4.55795 25.107311,19.13016"
       id="path1" />
    <path
       style="fill:#000000;fill-opacity:0;stroke:#228fea;stroke-width:0.4;stroke-dasharray:none;stroke-opacity:1"
       d="m 90.224663,133.93569 24.759477,34.72615"
       id="path2" />
    <path
       style="fill:#000000;fill-opacity:0;stroke:#228fea;stroke-width:0.4;stroke-dasharray:none;stroke-opacity:1"
       d="m 116.21287,138.33143 -26.970144,9.89383 25.548164,4.26501"
       id="path3" />
    <path
       style="fill:#000000;fill-opacity:0;stroke:#228fea;stroke-width:0.4;stroke-dasharray:none;stroke-opacity:1"
       d="m 89.370318,148.37907 25.695702,20.09785"
       id="path4" />
    <path
       style="fill:#000000;fill-opacity:0;stroke:#2200ea;stroke-width:0.4;stroke-dasharray:none;stroke-opacity:1"
       d="m 115.7953,138.5586 0.16136,-0.23239 -27.600805,24.72031 26.718575,-10.39873 v 0"
       id="path5" />
    <path
       style="fill:#000000;fill-opacity:0;stroke:#228fea;stroke-width:0.4;stroke-dasharray:none;stroke-opacity:1"
       d="m 88.575473,163.09197 26.319587,5.26246 v 0 0"
       id="path6" />
    <path
       style="fill:#000000;fill-opacity:0;stroke:#228fea;stroke-width:0.4;stroke-dasharray:none;stroke-opacity:1"
       d="M 116.03916,138.31926 88.575232,177.24039 114.90937,152.6006"
       id="path7" />
    <path
       style="fill:#000000;fill-opacity:0;stroke:#2200ea;stroke-width:0.4;stroke-dasharray:none;stroke-opacity:1"
       d="m 88.864025,177.08092 26.348625,-8.48856 v 0 l -0.33029,-0.2475"
       id="path8" />
    <ellipse
       style="opacity:1;fill:#00be87;fill-opacity:1;stroke:#000000;stroke-width:0.438959;stroke-linejoin:round;stroke-miterlimit:10;stroke-dasharray:none;stroke-opacity:1"
       id="path817"
       cx="85.863136"
       cy="132.73003"
       rx="3.8296175"
       ry="3.913588" />
    <ellipse
       style="fill:#00be87;fill-opacity:1;stroke:#000000;stroke-width:0.438959;stroke-linejoin:round;stroke-miterlimit:10;stroke-dasharray:none;stroke-opacity:1"
       id="path817-3"
       cx="85.805351"
       cy="147.75397"
       rx="3.8296175"
       ry="3.913588" />
    <ellipse
       style="fill:#00be87;fill-opacity:1;stroke:#000000;stroke-width:0.438959;stroke-linejoin:round;stroke-miterlimit:10;stroke-dasharray:none;stroke-opacity:1"
       id="path817-6"
       cx="85.805351"
       cy="162.5706"
       rx="3.8296175"
       ry="3.913588" />
    <ellipse
       style="fill:#00be87;fill-opacity:1;stroke:#000000;stroke-width:0.438959;stroke-linejoin:round;stroke-miterlimit:10;stroke-dasharray:none;stroke-opacity:1"
       id="path817-7"
       cx="85.805351"
       cy="177.91652"
       rx="3.8296175"
       ry="3.913588" />
    <path
       style="fill:#000000;fill-opacity:0;stroke:#222bea;stroke-width:0.4;stroke-dasharray:none;stroke-opacity:1"
       d="m 145.75785,144.72339 -22.68433,-5.42598 22.65694,21.12922 v 0 0 0"
       id="path9" />
    <path
       style="fill:#000000;fill-opacity:0;stroke:#228fea;stroke-width:0.4;stroke-dasharray:none;stroke-opacity:1"
       d="m 145.37952,144.90096 -23.20301,8.92516 23.27213,6.47014"
       id="path10" />
    <path
       style="fill:#000000;fill-opacity:0;stroke:#2264ea;stroke-width:0.4;stroke-dasharray:none;stroke-opacity:1"
       d="m 145.30325,145.03352 -23.60831,24.56134 23.75366,-9.31013"
       id="path11"
       inkscape:export-filename="path11.png"
       inkscape:export-xdpi="96"
       inkscape:export-ydpi="96" />
    <ellipse
       style="fill:#00be87;fill-opacity:1;stroke:#000000;stroke-width:0.438959;stroke-linejoin:round;stroke-miterlimit:10;stroke-dasharray:none;stroke-opacity:1"
       id="path817-3-3"
       cx="119.14282"
       cy="139.22998"
       rx="3.8296175"
       ry="3.913588" />
    <ellipse
       style="fill:#00be87;fill-opacity:1;stroke:#000000;stroke-width:0.438959;stroke-linejoin:round;stroke-miterlimit:10;stroke-dasharray:none;stroke-opacity:1"
       id="path817-6-5"
       cx="119.14283"
       cy="154.04662"
       rx="3.8296175"
       ry="3.913588" />
    <ellipse
       style="fill:#00be87;fill-opacity:1;stroke:#000000;stroke-width:0.438959;stroke-linejoin:round;stroke-miterlimit:10;stroke-dasharray:none;stroke-opacity:1"
       id="path817-7-6"
       cx="119.14282"
       cy="169.39253"
       rx="3.8296175"
       ry="3.913588" />
    <text
       xml:space="preserve"
       style="font-style:normal;font-weight:normal;font-size:5.64444px;line-height:1.25;font-family:sans-serif;letter-spacing:0px;word-spacing:0px;fill:#000000;fill-opacity:1;stroke:#000000;stroke-width:0.880312;stroke-opacity:0"
       x="-161.55829"
       y="162.28201"
       id="text3041-1-9"
       transform="matrix(-0.02547297,-1.0406166,0.96033248,-0.02599153,0,0)"><tspan
         sodipodi:role="line"
         id="tspan3039-5-4"
         x="-161.55829"
         y="162.28201"
         style="font-size:5.64444px;fill:#000000;fill-opacity:1;stroke:#000000;stroke-width:0.880312;stroke-opacity:0">Output</tspan></text>
    <ellipse
       style="fill:#00be87;fill-opacity:1;stroke:#000000;stroke-width:0.438959;stroke-linejoin:round;stroke-miterlimit:10;stroke-dasharray:none;stroke-opacity:1"
       id="path817-6-5-2"
       cx="149.30539"
       cy="145.90179"
       rx="3.8296175"
       ry="3.913588" />
    <ellipse
       style="fill:#00be87;fill-opacity:1;stroke:#000000;stroke-width:0.438959;stroke-linejoin:round;stroke-miterlimit:10;stroke-dasharray:none;stroke-opacity:1"
       id="path817-7-6-9"
       cx="149.30537"
       cy="161.24771"
       rx="3.8296175"
       ry="3.913588"
       inkscape:export-filename="net_intro.png"
       inkscape:export-xdpi="96"
       inkscape:export-ydpi="96" />
    <path
       style="fill:#ffffff;fill-opacity:1;stroke:#0096b4;stroke-width:1.53772"
       d="m 317.77428,184.21829 c -3.29592,-2.00984 -6.52999,-7.57508 -6.52999,-11.2369 0,-3.99066 2.89691,-9.15803 6.2959,-11.23034 7.24967,-4.42001 16.30188,-1.16295 19.10119,6.87276 1.31437,3.77304 1.31437,4.80633 0,8.57936 -2.75791,7.91687 -11.84661,11.29621 -18.8671,7.01512 z"
       id="path16"
       transform="matrix(0.26458333,0,0,0.26458333,0,87)" />
    <path
       style="fill:#ffffff;fill-opacity:1;stroke:#0096b4;stroke-width:1.53772"
       d="m 318.45051,241.3693 c -6.22211,-3.28371 -8.86829,-11.43442 -5.70084,-17.5596 5.41467,-10.47082 20.66835,-9.26939 24.01217,1.89128 3.27155,10.91945 -8.39469,20.9018 -18.31133,15.66832 z"
       id="path17"
       transform="matrix(0.26458333,0,0,0.26458333,0,87)" />
    <path
       style="fill:#ffffff;fill-opacity:1;stroke:#0096b4;stroke-width:1.53772"
       d="m 317.54019,297.03783 c -5.62692,-3.53017 -7.81707,-11.43282 -4.79052,-17.28553 3.63667,-7.03255 11.80757,-9.26716 18.6443,-5.09892 7.03018,4.28619 7.8886,13.4302 1.87666,19.99036 -4.25837,4.64669 -10.60118,5.61203 -15.73044,2.39409 z"
       id="path18"
       transform="matrix(0.26458333,0,0,0.26458333,0,87)" />
    <path
       style="fill:#ffffff;fill-opacity:1;stroke:#0096b4;stroke-width:1.53772"
       d="m 317.54019,355.0147 c -5.62692,-3.53016 -7.81707,-11.43282 -4.79052,-17.28552 3.63667,-7.03255 11.80757,-9.26716 18.6443,-5.09892 7.03018,4.28618 7.8886,13.43019 1.87666,19.99036 -4.25837,4.64669 -10.60118,5.61202 -15.73044,2.39408 z"
       id="path19"
       transform="matrix(0.26458333,0,0,0.26458333,0,87)" />
    <path
       style="fill:#ffffff;fill-opacity:1;stroke:#0096b4;stroke-width:1.53772"
       d="m 443.08053,322.343 c -5.74504,-4.51905 -7.30446,-12.03304 -3.71801,-17.91502 6.00955,-9.85599 20.42566,-7.41228 23.49396,3.98252 1.38344,5.13771 -1.53149,12.13664 -6.02178,14.45866 -4.39644,2.27349 -10.49141,2.04032 -13.75417,-0.52616 z"
       id="path20"
       transform="matrix(0.26458333,0,0,0.26458333,0,87)" />
    <path
       style="fill:#ffffff;fill-opacity:1;stroke:#0096b4;stroke-width:1.53772"
       d="m 443.08053,264.36612 c -5.74504,-4.51905 -7.30446,-12.03304 -3.71801,-17.91501 5.8795,-9.64271 19.86673,-7.55673 23.51822,3.50739 1.58221,4.79416 -1.10952,11.87826 -5.53985,14.57974 -4.29628,2.61973 -10.81106,2.5411 -14.26036,-0.17212 z"
       id="path21"
       transform="matrix(0.26458333,0,0,0.26458333,0,87)" />
    <path
       style="fill:#ffffff;fill-opacity:1;stroke:#0096b4;stroke-width:1.53772"
       d="m 444.51992,209.24637 c -6.44271,-3.26005 -8.97812,-12.47168 -5.1574,-18.73786 6.02614,-9.88321 20.42652,-7.40907 23.5092,4.03912 0.88889,3.3011 0.72675,4.61651 -1.01175,8.20777 -3.35696,6.93456 -10.89035,9.75456 -17.34005,6.49097 z"
       id="path22"
       transform="matrix(0.26458333,0,0,0.26458333,0,87)" />
    <path
       style="fill:#ffffff;fill-opacity:1;stroke:#0096b4;stroke-width:1.53772"
       d="m 557.69539,234.04251 c -10.89626,-6.8431 -6.58078,-24.51204 5.98685,-24.51204 12.95702,0 18.30081,14.36412 8.65241,23.25769 -3.65322,3.36742 -10.35963,3.94205 -14.63926,1.25435 z"
       id="path23"
       transform="matrix(0.26458333,0,0,0.26458333,0,87)" />
    <path
       style="fill:#ffffff;fill-opacity:1;stroke:#0096b4;stroke-width:1.53772"
       d="m 557.69539,291.95984 c -10.923,-6.66014 -6.56679,-24.4525 5.98685,-24.4525 10.5208,0 16.57367,9.40624 12.05693,18.73659 -3.50836,7.24731 -11.4212,9.75393 -18.04378,5.71591 z"
       id="path24"
       transform="matrix(0.26458333,0,0,0.26458333,0,87)"
       inkscape:export-filename="net_intro.png"
       inkscape:export-xdpi="96"
       inkscape:export-ydpi="96" />
  </g>
</svg>
